<svg xmlns="http://www.w3.org/2000/svg" viewBox="0 0 517.11 310.27"><defs><style>.cls-1{fill:#202f39;}.cls-2{fill:#b59a6c;}</style></defs><title>LW_LOGO</title><g id="Layer_2" data-name="Layer 2"><g id="Layer_6" data-name="Layer 6"><path class="cls-1" d="M452.47,0,323.19,221.61,303.8,254.86l-32.32,55.41H232.7l51.71-88.65,19.39-33.25L399.21,24.81a7.89,7.89,0,0,0-6.82-11.88h-4.56V0Z"/><path class="cls-1" d="M517.11,0V12.93h-3a7.91,7.91,0,0,0-6.82,3.92L350.59,285.46a7.9,7.9,0,0,0,6.83,11.88H362v12.93H297.34L478.33,0Z"/><path class="cls-2" d="M290.87,166.21l-6.46,11.09-6.11-10.46a7.89,7.89,0,0,0-13.64,0l-6.11,10.46L200.38,277,181,310.27,161.6,277,9.83,16.85A7.91,7.91,0,0,0,3,12.93H0V0H64.64V12.93H60.09a7.9,7.9,0,0,0-6.83,11.88L181,243.77l58.17-99.71,12.93-22.17,6.46-11.09L278,144.06Z"/></g></g></svg>